{
  "accessors": [
    {
      "bufferView": 2,
      "componentType": 5126,
      "count": 323,
      "max": [
        19.097660064697266,
        33.9530029296875,
        17.89131736755371
      ],
      "min": [
        -10.84266471862793,
        0.24601000547409058,
        -17.89131736755371
      ],
      "type": "VEC3"
    },
    {
      "bufferView": 2,
      "byteOffset": 3876,
      "componentType": 5126,
      "count": 323,
      "max": [
        0.9959371089935303,
        0.9999929070472717,
        0.9995746612548828
      ],
      "min": [
        -0.9994673728942871,
        -0.9999993443489075,
        -0.9995691180229187
      ],
      "type": "VEC3"
    },
    {
      "bufferView": 3,
      "componentType": 5126,
      "count": 323,
      "max": [
        0.9913557767868042,
        0.9990633130073547,
        0.9999274611473083,
        1.0
      ],
      "min": [
        -0.988288938999176,
        -0.820231020450592,
        -0.9999962449073792,
        1.0
      ],
      "type": "VEC4"
    },
    {
      "bufferView": 1,
      "componentType": 5126,
      "count": 323,
      "max": [
        0.5722190141677856,
        0.9904159903526306
      ],
      "min": [
        0.005193999968469143,
        0.17239199578762054
      ],
      "type": "VEC2"
    },
    {
      "bufferView": 0,
      "componentType": 5125,
      "count": 1278,
      "type": "SCALAR"
    },
    {
      "bufferView": 2,
      "byteOffset": 7752,
      "componentType": 5126,
      "count": 637,
      "max": [
        40.73479080200195,
        5.2565741539001465,
        0.2056249976158142
      ],
      "min": [
        -19.1580810546875,
        0.17533700168132782,
        -31.31009292602539
      ],
      "type": "VEC3"
    },
    {
      "bufferView": 2,
      "byteOffset": 15396,
      "componentType": 5126,
      "count": 637,
      "max": [
        1.0,
        1.0,
        1.0
      ],
      "min": [
        -1.0,
        -1.0,
        -1.0
      ],
      "type": "VEC3"
    },
    {
      "bufferView": 3,
      "byteOffset": 5168,
      "componentType": 5126,
      "count": 637,
      "max": [
        1.0,
        1.0,
        0.991119921207428,
        1.0
      ],
      "min": [
        -1.0,
        -1.0,
        -0.9884913563728333,
        1.0
      ],
      "type": "VEC4"
    },
    {
      "bufferView": 1,
      "byteOffset": 2584,
      "componentType": 5126,
      "count": 637,
      "max": [
        0.9944720268249512,
        0.7701169848442078
      ],
      "min": [
        0.15126800537109375,
        0.016919000074267387
      ],
      "type": "VEC2"
    },
    {
      "bufferView": 0,
      "byteOffset": 5112,
      "componentType": 5125,
      "count": 3288,
      "type": "SCALAR"
    },
    {
      "bufferView": 2,
      "byteOffset": 23040,
      "componentType": 5126,
      "count": 2161,
      "max": [
        43.842994689941406,
        5.312849998474121,
        28.542692184448242
      ],
      "min": [
        -24.10135841369629,
        0.24600200355052948,
        -15.295806884765625
      ],
      "type": "VEC3"
    },
    {
      "bufferView": 2,
      "byteOffset": 48972,
      "componentType": 5126,
      "count": 2161,
      "max": [
        0.9999767541885376,
        0.9999931454658508,
        0.9999896287918091
      ],
      "min": [
        -0.9999962449073792,
        -1.0,
        -0.9999969005584717
      ],
      "type": "VEC3"
    },
    {
      "bufferView": 3,
      "byteOffset": 15360,
      "componentType": 5126,
      "count": 2161,
      "max": [
        1.0,
        0.9999861717224121,
        0.9955755472183228,
        1.0
      ],
      "min": [
        -0.9998020529747009,
        -0.9999710321426392,
        -0.9999999403953552,
        -1.0
      ],
      "type": "VEC4"
    },
    {
      "bufferView": 1,
      "byteOffset": 7680,
      "componentType": 5126,
      "count": 2161,
      "max": [
        0.8828139901161194,
        0.9904419779777527
      ],
      "min": [
        0.054777998477220535,
        0.07472000271081924
      ],
      "type": "VEC2"
    },
    {
      "bufferView": 0,
      "byteOffset": 18264,
      "componentType": 5125,
      "count": 12048,
      "type": "SCALAR"
    }
  ],
  "asset": {
    "extras": {
      "author": "JoeyNutria (https://sketchfab.com/JoeyNutria)",
      "license": "CC-BY-4.0 (http://creativecommons.org/licenses/by/4.0/)",
      "source": "https://sketchfab.com/3d-models/pink-retro-computer-e7bd70ee0e9548d9bef951c7b1ca9a2f",
      "title": "Pink Retro Computer"
    },
    "generator": "Sketchfab-16.59.0",
    "version": "2.0"
  },
  "bufferViews": [
    {
      "buffer": 0,
      "byteLength": 66456,
      "name": "floatBufferViews",
      "target": 34963
    },
    {
      "buffer": 0,
      "byteLength": 24968,
      "byteOffset": 66456,
      "byteStride": 8,
      "name": "floatBufferViews",
      "target": 34962
    },
    {
      "buffer": 0,
      "byteLength": 74904,
      "byteOffset": 91424,
      "byteStride": 12,
      "name": "floatBufferViews",
      "target": 34962
    },
    {
      "buffer": 0,
      "byteLength": 49936,
      "byteOffset": 166328,
      "byteStride": 16,
      "name": "floatBufferViews",
      "target": 34962
    }
  ],
  "buffers": [
    {
      "byteLength": 216264,
      "uri": "scene.bin"
    }
  ],
  "images": [
    {
      "uri": "textures/Computer_baseColor.png"
    },
    {
      "uri": "textures/Computer_metallicRoughness.png"
    },
    {
      "uri": "textures/Computer_emissive.jpeg"
    },
    {
      "uri": "textures/Computer_normal.png"
    }
  ],
  "materials": [
    {
      "alphaMode": "BLEND",
      "doubleSided": true,
      "emissiveFactor": [
        1.0,
        1.0,
        1.0
      ],
      "emissiveTexture": {
        "index": 2
      },
      "name": "Computer",
      "normalTexture": {
        "index": 3
      },
      "occlusionTexture": {
        "index": 1
      },
      "pbrMetallicRoughness": {
        "baseColorTexture": {
          "index": 0
        },
        "metallicRoughnessTexture": {
          "index": 1
        }
      }
    }
  ],
  "meshes": [
    {
      "name": "defaultMaterial",
      "primitives": [
        {
          "attributes": {
            "NORMAL": 1,
            "POSITION": 0,
            "TANGENT": 2,
            "TEXCOORD_0": 3
          },
          "indices": 4,
          "material": 0,
          "mode": 4
        }
      ]
    },
    {
      "name": "defaultMaterial",
      "primitives": [
        {
          "attributes": {
            "NORMAL": 6,
            "POSITION": 5,
            "TANGENT": 7,
            "TEXCOORD_0": 8
          },
          "indices": 9,
          "material": 0,
          "mode": 4
        }
      ]
    },
    {
      "name": "defaultMaterial",
      "primitives": [
        {
          "attributes": {
            "NORMAL": 11,
            "POSITION": 10,
            "TANGENT": 12,
            "TEXCOORD_0": 13
          },
          "indices": 14,
          "material": 0,
          "mode": 4
        }
      ]
    }
  ],
  "nodes": [
    {
      "children": [
        1
      ],
      "matrix": [
        0.489413321018219,
        -1.9363443165985243e-16,
        0.8720519542694092,
        0.0,
        0.8720519542694092,
        -5.214067478523496e-17,
        -0.489413321018219,
        0.0,
        1.4023665410177368e-16,
        1.0,
        1.43340943826677e-16,
        0.0,
        0.0,
        0.0,
        0.0,
        1.0
      ],
      "name": "Sketchfab_model"
    },
    {
      "children": [
        2
      ],
      "matrix": [
        1.0,
        0.0,
        0.0,
        0.0,
        0.0,
        -4.371139006309477e-08,
        0.999999999999999,
        0.0,
        0.0,
        -0.999999999999999,
        -4.371139006309477e-08,
        0.0,
        0.0,
        0.0,
        0.0,
        1.0
      ],
      "name": "Collada visual scene group"
    },
    {
      "children": [
        3,
        5,
        7
      ],
      "name": "Computer1"
    },
    {
      "children": [
        4
      ],
      "name": "Base"
    },
    {
      "mesh": 0,
      "name": "defaultMaterial"
    },
    {
      "children": [
        6
      ],
      "name": "Mouse"
    },
    {
      "mesh": 1,
      "name": "defaultMaterial"
    },
    {
      "children": [
        8
      ],
      "name": "Keyboard"
    },
    {
      "mesh": 2,
      "name": "defaultMaterial"
    }
  ],
  "samplers": [
    {
      "magFilter": 9729,
      "minFilter": 9987,
      "wrapS": 10497,
      "wrapT": 10497
    }
  ],
  "scene": 0,
  "scenes": [
    {
      "name": "Sketchfab_Scene",
      "nodes": [
        0
      ]
    }
  ],
  "textures": [
    {
      "sampler": 0,
      "source": 0
    },
    {
      "sampler": 0,
      "source": 1
    },
    {
      "sampler": 0,
      "source": 2
    },
    {
      "sampler": 0,
      "source": 3
    }
  ]
}
